<svg width="2112" height="1152" xmlns="http://www.w3.org/2000/svg" xmlns:xlink="http://www.w3.org/1999/xlink" overflow="hidden"><defs><filter id="fx0" x="-10%" y="-10%" width="120%" height="120%" filterUnits="userSpaceOnUse" primitiveUnits="userSpaceOnUse"><feComponentTransfer color-interpolation-filters="sRGB"><feFuncR type="discrete" tableValues="1 1"/><feFuncG type="discrete" tableValues="1 1"/><feFuncB type="discrete" tableValues="1 1"/><feFuncA type="linear" slope="0.4" intercept="0"/></feComponentTransfer><feGaussianBlur stdDeviation="4.44444 4.44444"/></filter><filter id="fx1" x="-10%" y="-10%" width="120%" height="120%" filterUnits="userSpaceOnUse" primitiveUnits="userSpaceOnUse"><feComponentTransfer color-interpolation-filters="sRGB"><feFuncR type="discrete" tableValues="0.65098 0.65098"/><feFuncG type="discrete" tableValues="0.65098 0.65098"/><feFuncB type="discrete" tableValues="0.65098 0.65098"/><feFuncA type="linear" slope="0.4" intercept="0"/></feComponentTransfer><feGaussianBlur stdDeviation="6.66667 6.66667"/></filter><filter id="fx2" x="-10%" y="-10%" width="120%" height="120%" filterUnits="userSpaceOnUse" primitiveUnits="userSpaceOnUse"><feComponentTransfer color-interpolation-filters="sRGB"><feFuncR type="discrete" tableValues="1 1"/><feFuncG type="discrete" tableValues="1 1"/><feFuncB type="discrete" tableValues="1 1"/><feFuncA type="linear" slope="0.4" intercept="0"/></feComponentTransfer><feGaussianBlur stdDeviation="4.44444 4.44444"/></filter><filter id="fx3" x="-10%" y="-10%" width="120%" height="120%" filterUnits="userSpaceOnUse" primitiveUnits="userSpaceOnUse"><feComponentTransfer color-interpolation-filters="sRGB"><feFuncR type="discrete" tableValues="0.65098 0.65098"/><feFuncG type="discrete" tableValues="0.65098 0.65098"/><feFuncB type="discrete" tableValues="0.65098 0.65098"/><feFuncA type="linear" slope="0.4" intercept="0"/></feComponentTransfer><feGaussianBlur stdDeviation="6.66667 6.66667"/></filter><filter id="fx4" x="-10%" y="-10%" width="120%" height="120%" filterUnits="userSpaceOnUse" primitiveUnits="userSpaceOnUse"><feComponentTransfer color-interpolation-filters="sRGB"><feFuncR type="discrete" tableValues="0.65098 0.65098"/><feFuncG type="discrete" tableValues="0.65098 0.65098"/><feFuncB type="discrete" tableValues="0.65098 0.65098"/><feFuncA type="linear" slope="0.4" intercept="0"/></feComponentTransfer><feGaussianBlur stdDeviation="6.66667 6.66667"/></filter><filter id="fx5" x="-10%" y="-10%" width="120%" height="120%" filterUnits="userSpaceOnUse" primitiveUnits="userSpaceOnUse"><feComponentTransfer color-interpolation-filters="sRGB"><feFuncR type="discrete" tableValues="1 1"/><feFuncG type="discrete" tableValues="1 1"/><feFuncB type="discrete" tableValues="1 1"/><feFuncA type="linear" slope="0.4" intercept="0"/></feComponentTransfer><feGaussianBlur stdDeviation="4.44444 4.44444"/></filter><filter id="fx6" x="-10%" y="-10%" width="120%" height="120%" filterUnits="userSpaceOnUse" primitiveUnits="userSpaceOnUse"><feComponentTransfer color-interpolation-filters="sRGB"><feFuncR type="discrete" tableValues="0.65098 0.65098"/><feFuncG type="discrete" tableValues="0.65098 0.65098"/><feFuncB type="discrete" tableValues="0.65098 0.65098"/><feFuncA type="linear" slope="0.4" intercept="0"/></feComponentTransfer><feGaussianBlur stdDeviation="6.66667 6.66667"/></filter><filter id="fx7" x="-10%" y="-10%" width="120%" height="120%" filterUnits="userSpaceOnUse" primitiveUnits="userSpaceOnUse"><feComponentTransfer color-interpolation-filters="sRGB"><feFuncR type="discrete" tableValues="1 1"/><feFuncG type="discrete" tableValues="1 1"/><feFuncB type="discrete" tableValues="1 1"/><feFuncA type="linear" slope="0.4" intercept="0"/></feComponentTransfer><feGaussianBlur stdDeviation="4.44444 4.44444"/></filter><filter id="fx8" x="-10%" y="-10%" width="120%" height="120%" filterUnits="userSpaceOnUse" primitiveUnits="userSpaceOnUse"><feComponentTransfer color-interpolation-filters="sRGB"><feFuncR type="discrete" tableValues="0.65098 0.65098"/><feFuncG type="discrete" tableValues="0.65098 0.65098"/><feFuncB type="discrete" tableValues="0.65098 0.65098"/><feFuncA type="linear" slope="0.4" intercept="0"/></feComponentTransfer><feGaussianBlur stdDeviation="6.66667 6.66667"/></filter><clipPath id="clip9"><rect x="0" y="0" width="2112" height="1152"/></clipPath><clipPath id="clip10"><rect x="-2" y="-2" width="629" height="439"/></clipPath><clipPath id="clip11"><rect x="0" y="0" width="625" height="435"/></clipPath><clipPath id="clip12"><rect x="-3" y="-3" width="644" height="452"/></clipPath><clipPath id="clip13"><rect x="0" y="0" width="637" height="447"/></clipPath><linearGradient x1="447.5" y1="50" x2="447.5" y2="455" gradientUnits="userSpaceOnUse" spreadMethod="reflect" id="fill14"><stop offset="0" stop-color="#EDEEF5"/><stop offset="1" stop-color="#FFFFFF"/></linearGradient><clipPath id="clip15"><rect x="-2" y="-2" width="1924" height="530"/></clipPath><clipPath id="clip16"><rect x="0" y="0" width="1921" height="525"/></clipPath><clipPath id="clip17"><rect x="-3" y="-3" width="1939" height="543"/></clipPath><clipPath id="clip18"><rect x="0" y="0" width="1933" height="537"/></clipPath><linearGradient x1="1110.5" y1="607" x2="1110.5" y2="1102" gradientUnits="userSpaceOnUse" spreadMethod="reflect" id="fill19"><stop offset="0" stop-color="#EDEEF5"/><stop offset="1" stop-color="#FFFFFF"/></linearGradient><clipPath id="clip20"><rect x="-3" y="-3" width="152" height="1187"/></clipPath><clipPath id="clip21"><rect x="0" y="0" width="145" height="1164"/></clipPath><linearGradient x1="72.5" y1="15" x2="72.5" y2="1152" gradientUnits="userSpaceOnUse" spreadMethod="reflect" id="fill22"><stop offset="0" stop-color="#7B00AD"/><stop offset="1" stop-color="#FDA9A9"/><stop offset="1" stop-color="#FFFFFF"/></linearGradient><clipPath id="clip23"><rect x="-2" y="-2" width="629" height="437"/></clipPath><clipPath id="clip24"><rect x="0" y="0" width="626" height="434"/></clipPath><clipPath id="clip25"><rect x="-3" y="-3" width="644" height="452"/></clipPath><clipPath id="clip26"><rect x="0" y="0" width="638" height="446"/></clipPath><linearGradient x1="1103" y1="52" x2="1103" y2="456" gradientUnits="userSpaceOnUse" spreadMethod="reflect" id="fill27"><stop offset="0" stop-color="#EDEEF5"/><stop offset="1" stop-color="#FFFFFF"/></linearGradient><clipPath id="clip28"><rect x="-2" y="-2" width="629" height="437"/></clipPath><clipPath id="clip29"><rect x="0" y="0" width="625" height="434"/></clipPath><clipPath id="clip30"><rect x="-3" y="-3" width="644" height="452"/></clipPath><clipPath id="clip31"><rect x="0" y="0" width="637" height="446"/></clipPath><linearGradient x1="1758.5" y1="54" x2="1758.5" y2="458" gradientUnits="userSpaceOnUse" spreadMethod="reflect" id="fill32"><stop offset="0" stop-color="#EDEEF5"/><stop offset="1" stop-color="#FFFFFF"/></linearGradient></defs><g clip-path="url(#clip9)"><rect x="0" y="0" width="2112" height="1152" fill="#FFFFFF"/><path d="M20 43.441C20 26.0766 34.0766 12 51.441 12L2059.56 12C2076.92 12 2091 26.0766 2091 43.441L2091 1120.56C2091 1137.92 2076.92 1152 2059.56 1152L51.441 1152C34.0766 1152 20 1137.92 20 1120.56Z" fill="#F3F4F7" fill-rule="evenodd"/><g clip-path="url(#clip10)" filter="url(#fx0)" transform="translate(126 26)"><g clip-path="url(#clip11)"><path d="M14.5719 82.073C14.5719 44.7932 44.7931 14.5719 82.0729 14.5719L542.071 14.5719C579.351 14.5719 609.572 44.7932 609.572 82.073L609.572 352.071C609.572 389.351 579.351 419.572 542.071 419.572L82.0729 419.572C44.7931 419.572 14.5719 389.351 14.5719 352.071Z" fill="#D9D9D9" fill-rule="evenodd"/></g></g><path d="M150 117.501C150 80.2213 180.221 50 217.501 50L677.499 50C714.779 50 745 80.2213 745 117.501L745 387.499C745 424.779 714.779 455 677.499 455L217.501 455C180.221 455 150 424.779 150 387.499Z" fill="#D9D9D9" fill-rule="evenodd"/><g clip-path="url(#clip12)" filter="url(#fx1)" transform="translate(143 43)"><g clip-path="url(#clip13)"><path d="M21.1421 88.6432C21.1421 51.3634 51.3634 21.1421 88.6431 21.1421L548.641 21.1421C585.921 21.1421 616.142 51.3634 616.142 88.6432L616.142 358.641C616.142 395.921 585.921 426.142 548.641 426.142L88.6431 426.142C51.3634 426.142 21.1421 395.921 21.1421 358.641Z" fill="#FF0000" fill-rule="evenodd"/></g></g><path d="M150 117.501C150 80.2213 180.221 50 217.501 50L677.499 50C714.779 50 745 80.2213 745 117.501L745 387.499C745 424.779 714.779 455 677.499 455L217.501 455C180.221 455 150 424.779 150 387.499Z" fill="url(#fill14)" fill-rule="evenodd"/><g clip-path="url(#clip15)" filter="url(#fx2)" transform="translate(141 583)"><g clip-path="url(#clip16)"><path d="M14.5719 97.0736C14.5719 51.5092 51.5092 14.5719 97.0736 14.5719L1823.07 14.5719C1868.63 14.5719 1905.57 51.5092 1905.57 97.0736L1905.57 427.07C1905.57 472.635 1868.63 509.572 1823.07 509.572L97.0736 509.572C51.5092 509.572 14.5719 472.635 14.5719 427.07Z" fill="#D9D9D9" fill-rule="evenodd"/></g></g><path d="M165 689.502C165 643.937 201.937 607 247.502 607L1973.5 607C2019.06 607 2056 643.937 2056 689.502L2056 1019.5C2056 1065.06 2019.06 1102 1973.5 1102L247.502 1102C201.937 1102 165 1065.06 165 1019.5Z" fill="#D9D9D9" fill-rule="evenodd"/><g clip-path="url(#clip17)" filter="url(#fx3)" transform="translate(158 600)"><g clip-path="url(#clip18)"><path d="M21.1421 103.644C21.1421 58.0794 58.0794 21.1422 103.644 21.1422L1829.64 21.1422C1875.2 21.1422 1912.14 58.0794 1912.14 103.644L1912.14 433.64C1912.14 479.205 1875.2 516.142 1829.64 516.142L103.644 516.142C58.0794 516.142 21.1421 479.205 21.1421 433.64Z" fill="#FF0000" fill-rule="evenodd"/></g></g><path d="M165 689.502C165 643.937 201.937 607 247.502 607L1973.5 607C2019.06 607 2056 643.937 2056 689.502L2056 1019.5C2056 1065.06 2019.06 1102 1973.5 1102L247.502 1102C201.937 1102 165 1065.06 165 1019.5Z" fill="url(#fill19)" fill-rule="evenodd"/><g clip-path="url(#clip20)" filter="url(#fx4)" transform="translate(14 8)"><g clip-path="url(#clip21)"><path d="M21.1421 38.309C21.1421 28.828 28.8281 21.1421 38.3092 21.1421L106.975 21.1421C116.456 21.1421 124.142 28.828 124.142 38.309L124.142 1140.98C124.142 1150.46 116.456 1158.14 106.975 1158.14L38.3092 1158.14C28.8281 1158.14 21.1421 1150.46 21.1421 1140.98Z" fill="#FF0000" fill-rule="evenodd"/></g></g><path d="M21 32.1669C21 22.6859 28.686 15 38.1671 15L106.833 15C116.314 15 124 22.6859 124 32.1669L124 1134.83C124 1144.31 116.314 1152 106.833 1152L38.1671 1152C28.686 1152 21 1144.31 21 1134.83Z" fill="url(#fill22)" fill-rule="evenodd"/><g clip-path="url(#clip23)" filter="url(#fx5)" transform="translate(781 28)"><g clip-path="url(#clip24)"><path d="M14.5719 81.9068C14.5719 44.7188 44.7187 14.5719 81.9067 14.5719L543.237 14.5719C580.425 14.5719 610.572 44.7188 610.572 81.9068L610.572 351.237C610.572 388.425 580.425 418.572 543.237 418.572L81.9067 418.572C44.7187 418.572 14.5719 388.425 14.5719 351.237Z" fill="#D9D9D9" fill-rule="evenodd"/></g></g><path d="M805 119.335C805 82.1468 835.147 52 872.335 52L1333.67 52C1370.85 52 1401 82.1468 1401 119.335L1401 388.665C1401 425.853 1370.85 456 1333.67 456L872.335 456C835.147 456 805 425.853 805 388.665Z" fill="#D9D9D9" fill-rule="evenodd"/><g clip-path="url(#clip25)" filter="url(#fx6)" transform="translate(798 45)"><g clip-path="url(#clip26)"><path d="M21.1422 88.477C21.1422 51.289 51.289 21.1421 88.477 21.1421L549.807 21.1421C586.995 21.1421 617.142 51.289 617.142 88.477L617.142 357.807C617.142 394.995 586.995 425.142 549.807 425.142L88.477 425.142C51.289 425.142 21.1422 394.995 21.1422 357.807Z" fill="#FF0000" fill-rule="evenodd"/></g></g><path d="M805 119.335C805 82.1468 835.147 52 872.335 52L1333.67 52C1370.85 52 1401 82.1468 1401 119.335L1401 388.665C1401 425.853 1370.85 456 1333.67 456L872.335 456C835.147 456 805 425.853 805 388.665Z" fill="url(#fill27)" fill-rule="evenodd"/><g clip-path="url(#clip28)" filter="url(#fx7)" transform="translate(1437 30)"><g clip-path="url(#clip29)"><path d="M14.5719 81.9064C14.5719 44.7186 44.7185 14.5719 81.9063 14.5719L542.237 14.5719C579.425 14.5719 609.572 44.7186 609.572 81.9064L609.572 351.237C609.572 388.425 579.425 418.572 542.237 418.572L81.9063 418.572C44.7185 418.572 14.5719 388.425 14.5719 351.237Z" fill="#D9D9D9" fill-rule="evenodd"/></g></g><path d="M1461 121.335C1461 84.1467 1491.15 54 1528.33 54L1988.67 54C2025.85 54 2056 84.1467 2056 121.335L2056 390.665C2056 427.853 2025.85 458 1988.67 458L1528.33 458C1491.15 458 1461 427.853 1461 390.665Z" fill="#D9D9D9" fill-rule="evenodd"/><g clip-path="url(#clip30)" filter="url(#fx8)" transform="translate(1454 47)"><g clip-path="url(#clip31)"><path d="M21.1421 88.4767C21.1421 51.2888 51.2887 21.1421 88.4765 21.1421L548.808 21.1421C585.995 21.1421 616.142 51.2888 616.142 88.4767L616.142 357.808C616.142 394.995 585.995 425.142 548.808 425.142L88.4765 425.142C51.2887 425.142 21.1421 394.995 21.1421 357.808Z" fill="#FF0000" fill-rule="evenodd"/></g></g><path d="M1461 121.335C1461 84.1467 1491.15 54 1528.33 54L1988.67 54C2025.85 54 2056 84.1467 2056 121.335L2056 390.665C2056 427.853 2025.85 458 1988.67 458L1528.33 458C1491.15 458 1461 427.853 1461 390.665Z" fill="url(#fill32)" fill-rule="evenodd"/></g></svg>